G04*
G04 #@! TF.GenerationSoftware,Altium Limited,Altium Designer,19.0.10 (269)*
G04*
G04 Layer_Color=0*
%FSLAX44Y44*%
%MOMM*%
G71*
G01*
G75*
%ADD122C,0.0500*%
D122*
X1030548Y1017250D02*
Y1127250D01*
X936548D02*
X1030548D01*
X936548Y1017250D02*
Y1127250D01*
Y1017250D02*
X1030548D01*
X556596Y1022790D02*
Y1068290D01*
X579596D01*
Y1022790D02*
Y1068290D01*
X556596Y1022790D02*
X579596D01*
X401342Y955242D02*
Y996942D01*
Y955242D02*
X423142D01*
Y996942D01*
X401342D02*
X423142D01*
X484286Y707168D02*
X523586D01*
X484286Y647668D02*
Y707168D01*
Y647668D02*
X523586D01*
Y707168D01*
X762456Y973070D02*
X882956D01*
Y1090070D01*
X762456D02*
X882956D01*
X762456Y973070D02*
Y1090070D01*
X660996Y1075580D02*
X735496D01*
Y1020580D02*
Y1075580D01*
X660996Y1020580D02*
X735496D01*
X660996D02*
Y1075580D01*
X930226Y991360D02*
X1035226D01*
Y886360D02*
Y991360D01*
X930226Y886360D02*
X1035226D01*
X930226D02*
Y991360D01*
X383702Y707780D02*
X423002D01*
X383702Y648280D02*
Y707780D01*
Y648280D02*
X423002D01*
Y707780D01*
X652688Y707422D02*
X691988D01*
X652688Y647922D02*
Y707422D01*
Y647922D02*
X691988D01*
Y707422D01*
X842426Y746550D02*
X881726D01*
Y806050D01*
X842426D02*
X881726D01*
X842426Y746550D02*
Y806050D01*
X634514Y1102890D02*
Y1124690D01*
X592814D02*
X634514D01*
X592814Y1102890D02*
Y1124690D01*
Y1102890D02*
X634514D01*
X1160670Y783266D02*
Y806266D01*
X1115170D02*
X1160670D01*
X1115170Y783266D02*
Y806266D01*
Y783266D02*
X1160670D01*
X971406Y823220D02*
Y846220D01*
Y823220D02*
X1016906D01*
Y846220D01*
X971406D02*
X1016906D01*
X1161472Y858156D02*
X1184472D01*
X1161472Y812656D02*
Y858156D01*
Y812656D02*
X1184472D01*
Y858156D01*
X1044886Y784496D02*
X1067886D01*
Y738996D02*
Y784496D01*
X1044886Y738996D02*
X1067886D01*
X1044886D02*
Y784496D01*
X945826Y843260D02*
X968826D01*
Y797760D02*
Y843260D01*
X945826Y797760D02*
X968826D01*
X945826D02*
Y843260D01*
X1169346Y1054780D02*
X1192346D01*
X1169346D02*
Y1100280D01*
X1192346D01*
Y1054780D02*
Y1100280D01*
X1219056Y970540D02*
Y993540D01*
X1264556D01*
Y970540D02*
Y993540D01*
X1219056Y970540D02*
X1264556D01*
X712326Y856240D02*
Y879240D01*
X757826D01*
Y856240D02*
Y879240D01*
X712326Y856240D02*
X757826D01*
X751730Y881818D02*
Y904818D01*
X706230D02*
X751730D01*
X706230Y881818D02*
Y904818D01*
Y881818D02*
X751730D01*
X447478Y774556D02*
X470478D01*
Y820056D01*
X447478D02*
X470478D01*
X447478Y774556D02*
Y820056D01*
X467236Y834650D02*
Y857650D01*
X421736D02*
X467236D01*
X421736Y834650D02*
Y857650D01*
Y834650D02*
X467236D01*
X592726Y849890D02*
Y872890D01*
X547226Y849890D02*
X592726D01*
X547226D02*
Y872890D01*
X592726D01*
X570120Y784790D02*
Y807790D01*
X524620D02*
X570120D01*
X524620Y784790D02*
Y807790D01*
Y784790D02*
X570120D01*
X1197286Y1100280D02*
X1220286D01*
Y1054780D02*
Y1100280D01*
X1197286Y1054780D02*
X1220286D01*
X1197286D02*
Y1100280D01*
X1264556Y992130D02*
Y1015130D01*
X1219056Y992130D02*
X1264556D01*
X1219056D02*
Y1015130D01*
X1264556D01*
X848236Y886720D02*
Y909720D01*
X802736Y886720D02*
X848236D01*
X802736D02*
Y909720D01*
X848236D01*
X505336Y865130D02*
Y888130D01*
X459836Y865130D02*
X505336D01*
X459836D02*
Y888130D01*
X505336D01*
X643526Y832350D02*
Y855350D01*
X598026Y832350D02*
X643526D01*
X598026D02*
Y855350D01*
X643526D01*
X1239376Y675030D02*
Y698030D01*
Y675030D02*
X1284876D01*
Y698030D01*
X1239376D02*
X1284876D01*
X1267824Y621722D02*
Y644722D01*
Y621722D02*
X1313324D01*
Y644722D01*
X1267824D02*
X1313324D01*
X542688Y942524D02*
Y965524D01*
X497188D02*
X542688D01*
X497188Y942524D02*
Y965524D01*
Y942524D02*
X542688D01*
X471100Y946802D02*
X494100D01*
X471100Y901302D02*
Y946802D01*
Y901302D02*
X494100D01*
Y946802D01*
X1154286Y636200D02*
Y659200D01*
Y636200D02*
X1199786D01*
Y659200D01*
X1154286D02*
X1199786D01*
X634128Y958526D02*
Y981526D01*
X588628Y958526D02*
X634128D01*
X588628D02*
Y981526D01*
X634128D01*
X865816Y1048190D02*
X888816D01*
X865816D02*
Y1093690D01*
X888816D01*
Y1048190D02*
Y1093690D01*
X831526Y1046920D02*
X854526D01*
X831526D02*
Y1092420D01*
X854526D01*
Y1046920D02*
Y1092420D01*
X860916Y932440D02*
Y955440D01*
Y932440D02*
X906416D01*
Y955440D01*
X860916D02*
X906416D01*
X869806Y1101350D02*
Y1124350D01*
X915306D01*
Y1101350D02*
Y1124350D01*
X869806Y1101350D02*
X915306D01*
X738816Y1065710D02*
X761816D01*
X738816Y1020210D02*
Y1065710D01*
Y1020210D02*
X761816D01*
Y1065710D01*
X761676Y1030170D02*
X784676D01*
X761676D02*
Y1075670D01*
X784676D01*
Y1030170D02*
Y1075670D01*
X647048Y981132D02*
Y1004132D01*
Y981132D02*
X692548D01*
Y1004132D01*
X647048D02*
X692548D01*
X1065420Y865308D02*
Y888308D01*
X1019920Y865308D02*
X1065420D01*
X1019920D02*
Y888308D01*
X1065420D01*
X1039806Y1015170D02*
X1062806D01*
Y1060670D01*
X1039806D02*
X1062806D01*
X1039806Y1015170D02*
Y1060670D01*
X929496Y1021340D02*
Y1044340D01*
X974996D01*
Y1021340D02*
Y1044340D01*
X929496Y1021340D02*
X974996D01*
X681880Y1077652D02*
Y1100652D01*
X636380D02*
X681880D01*
X636380Y1077652D02*
Y1100652D01*
Y1077652D02*
X681880D01*
X170596Y705860D02*
X209896D01*
X170596Y646360D02*
Y705860D01*
Y646360D02*
X209896D01*
Y705860D01*
X745906Y707422D02*
X785206D01*
X745906Y647922D02*
Y707422D01*
Y647922D02*
X785206D01*
Y707422D01*
X840648Y706152D02*
X879948D01*
X840648Y646652D02*
Y706152D01*
Y646652D02*
X879948D01*
Y706152D01*
X698704Y707422D02*
X738004D01*
X698704Y647922D02*
Y707422D01*
Y647922D02*
X738004D01*
Y707422D01*
X744636Y806050D02*
X783936D01*
X744636Y746550D02*
Y806050D01*
Y746550D02*
X783936D01*
Y806050D01*
X794674Y706660D02*
X833974D01*
X794674Y647160D02*
Y706660D01*
Y647160D02*
X833974D01*
Y706660D01*
X583092Y707676D02*
X622392D01*
X583092Y648176D02*
Y707676D01*
Y648176D02*
X622392D01*
Y707676D01*
X894546Y1068030D02*
Y1117030D01*
X921046D01*
Y1068030D02*
Y1117030D01*
X894546Y1068030D02*
X921046D01*
X845196Y1104680D02*
X894196D01*
X845196D02*
Y1131180D01*
X894196D01*
Y1104680D02*
Y1131180D01*
X770266Y928150D02*
X819266D01*
X770266D02*
Y954650D01*
X819266D01*
Y928150D02*
Y954650D01*
X592536Y1077840D02*
X641536D01*
Y1051340D02*
Y1077840D01*
X592536Y1051340D02*
X641536D01*
X592536D02*
Y1077840D01*
X592466Y1020690D02*
X641466D01*
Y994190D02*
Y1020690D01*
X592466Y994190D02*
X641466D01*
X592466D02*
Y1020690D01*
X1057106Y908010D02*
Y957010D01*
X1083606D01*
Y908010D02*
Y957010D01*
X1057106Y908010D02*
X1083606D01*
X534324Y707676D02*
X573624D01*
X534324Y648176D02*
Y707676D01*
Y648176D02*
X573624D01*
Y707676D01*
X1503658Y516150D02*
Y537950D01*
X1545358D01*
Y516150D02*
Y537950D01*
X1503658Y516150D02*
X1545358D01*
X1516950Y867702D02*
Y889502D01*
X1558650D01*
Y867702D02*
Y889502D01*
X1516950Y867702D02*
X1558650D01*
X1543834Y542566D02*
Y564366D01*
X1502134Y542566D02*
X1543834D01*
X1502134D02*
Y564366D01*
X1543834D01*
X1558650Y890702D02*
Y912502D01*
X1516950Y890702D02*
X1558650D01*
X1516950D02*
Y912502D01*
X1558650D01*
X694598Y806482D02*
X733898D01*
X694598Y746982D02*
Y806482D01*
Y746982D02*
X733898D01*
Y806482D01*
X311566Y705440D02*
X350866D01*
X311566Y645940D02*
Y705440D01*
Y645940D02*
X350866D01*
Y705440D01*
X434248Y707780D02*
X473548D01*
X434248Y648280D02*
Y707780D01*
Y648280D02*
X473548D01*
Y707780D01*
X792896Y806050D02*
X832196D01*
X792896Y746550D02*
Y806050D01*
Y746550D02*
X832196D01*
Y806050D01*
X646846Y806228D02*
X686146D01*
X646846Y746728D02*
Y806228D01*
Y746728D02*
X686146D01*
Y806228D01*
X264576Y705580D02*
X303876D01*
X264576Y646080D02*
Y705580D01*
Y646080D02*
X303876D01*
Y705580D01*
X217586Y705860D02*
X256886D01*
X217586Y646360D02*
Y705860D01*
Y646360D02*
X256886D01*
Y705860D01*
X334242Y900662D02*
X375942D01*
X334242Y878862D02*
Y900662D01*
Y878862D02*
X375942D01*
Y900662D01*
X691874Y775694D02*
Y817394D01*
X670074D02*
X691874D01*
X670074Y775694D02*
Y817394D01*
Y775694D02*
X691874D01*
X358880Y1073890D02*
X400580D01*
X358880Y1052090D02*
Y1073890D01*
Y1052090D02*
X400580D01*
Y1073890D01*
X1320524Y680444D02*
Y722144D01*
X1298724D02*
X1320524D01*
X1298724Y680444D02*
Y722144D01*
Y680444D02*
X1320524D01*
X671046Y913630D02*
Y955330D01*
X649246D02*
X671046D01*
X649246Y913630D02*
Y955330D01*
Y913630D02*
X671046D01*
X330984Y765684D02*
Y807384D01*
Y765684D02*
X352784D01*
Y807384D01*
X330984D02*
X352784D01*
X1051348Y796428D02*
Y845428D01*
X1024848Y796428D02*
X1051348D01*
X1024848D02*
Y845428D01*
X1051348D01*
X636200Y774556D02*
Y820056D01*
Y774556D02*
X659200D01*
Y820056D01*
X636200D02*
X659200D01*
X1211256Y674810D02*
Y720310D01*
Y674810D02*
X1234256D01*
Y720310D01*
X1211256D02*
X1234256D01*
X618166Y912060D02*
Y957560D01*
Y912060D02*
X641166D01*
Y957560D01*
X618166D02*
X641166D01*
X1132036Y813192D02*
X1158536D01*
Y862192D01*
X1132036D02*
X1158536D01*
X1132036Y813192D02*
Y862192D01*
X676106Y904870D02*
X702606D01*
X676106Y855870D02*
Y904870D01*
Y855870D02*
X702606D01*
Y904870D01*
X415756Y819850D02*
X442256D01*
X415756Y770850D02*
Y819850D01*
Y770850D02*
X442256D01*
Y819850D01*
X521346Y816405D02*
Y842905D01*
Y816405D02*
X570346D01*
Y842905D01*
X521346D02*
X570346D01*
X1298406Y655280D02*
X1324906D01*
Y704280D01*
X1298406D02*
X1324906D01*
X1298406Y655280D02*
Y704280D01*
X502042Y900642D02*
Y927142D01*
Y900642D02*
X551042D01*
Y927142D01*
X502042D02*
X551042D01*
X1040616Y1043530D02*
Y1065330D01*
X1082316D01*
Y1043530D02*
Y1065330D01*
X1040616Y1043530D02*
X1082316D01*
X1040616Y1013050D02*
Y1034850D01*
X1082316D01*
Y1013050D02*
Y1034850D01*
X1040616Y1013050D02*
X1082316D01*
X1067076Y1043770D02*
X1088876D01*
X1067076Y1002070D02*
Y1043770D01*
Y1002070D02*
X1088876D01*
Y1043770D01*
X973096Y1065330D02*
X994896D01*
X973096D02*
Y1107030D01*
X994896D01*
Y1065330D02*
Y1107030D01*
X1111066Y1002210D02*
X1132866D01*
Y960510D02*
Y1002210D01*
X1111066Y960510D02*
X1132866D01*
X1111066D02*
Y1002210D01*
X1145816D02*
X1167616D01*
Y960510D02*
Y1002210D01*
X1145816Y960510D02*
X1167616D01*
X1145816D02*
Y1002210D01*
X986558Y959126D02*
X1008358D01*
Y917426D02*
Y959126D01*
X986558Y917426D02*
X1008358D01*
X986558D02*
Y959126D01*
X1075966Y958440D02*
X1097766D01*
Y916740D02*
Y958440D01*
X1075966Y916740D02*
X1097766D01*
X1075966D02*
Y958440D01*
X1042946Y916740D02*
X1064746D01*
X1042946D02*
Y958440D01*
X1064746D01*
Y916740D02*
Y958440D01*
M02*
