G04*
G04 #@! TF.GenerationSoftware,Altium Limited,Altium Designer,19.0.10 (269)*
G04*
G04 Layer_Color=32768*
%FSLAX44Y44*%
%MOMM*%
G71*
G01*
G75*
%ADD11C,0.2540*%
%ADD14C,0.2000*%
%ADD117C,0.1524*%
%ADD120C,0.1000*%
%ADD122C,0.0500*%
G36*
X543122Y860400D02*
Y868956D01*
X524390D01*
Y860400D01*
X524466D01*
Y826820D01*
X524390D01*
Y818264D01*
X543122D01*
Y826820D01*
X543046D01*
Y860400D01*
X543122D01*
D02*
G37*
G36*
X700500Y977926D02*
Y986482D01*
X681768D01*
Y977926D01*
X681844D01*
Y944346D01*
X681768D01*
Y935790D01*
X700500D01*
Y944346D01*
X700424D01*
Y977926D01*
X700500D01*
D02*
G37*
G36*
X721582Y821030D02*
Y829586D01*
X702850D01*
Y821030D01*
X702926D01*
Y787450D01*
X702850D01*
Y778894D01*
X721582D01*
Y787450D01*
X721506D01*
Y821030D01*
X721582D01*
D02*
G37*
G36*
X852726Y862184D02*
X861282D01*
Y880916D01*
X852726D01*
Y880840D01*
X819146D01*
Y880916D01*
X810590D01*
Y862184D01*
X819146D01*
Y862260D01*
X852726D01*
Y862184D01*
D02*
G37*
G36*
X1167126Y684066D02*
X1158570D01*
Y665334D01*
X1167126D01*
Y665410D01*
X1200706D01*
Y665334D01*
X1209262D01*
Y684066D01*
X1200706D01*
Y683990D01*
X1167126D01*
Y684066D01*
D02*
G37*
D11*
X1470800Y757467D02*
X1750800D01*
X1470800Y442467D02*
Y757467D01*
Y442467D02*
X1750800D01*
Y757467D01*
X825756Y916150D02*
X857756D01*
Y903150D02*
Y916150D01*
X825756Y903150D02*
X857756D01*
X825756D02*
Y916150D01*
X892406Y873330D02*
Y905330D01*
X905406D01*
Y873330D02*
Y905330D01*
X892406Y873330D02*
X905406D01*
X1751550Y783102D02*
Y1098102D01*
X1471550Y783102D02*
X1751550D01*
X1471550D02*
Y1098102D01*
X1751550D01*
X1429450Y699322D02*
Y735422D01*
X1451250D01*
Y699322D02*
Y735422D01*
X1429450Y699322D02*
X1451250D01*
X964416Y804605D02*
Y840705D01*
X942616Y804605D02*
X964416D01*
X942616D02*
Y840705D01*
X964416D01*
X1520900Y943552D02*
Y979652D01*
Y943552D02*
X1542700D01*
Y979652D01*
X1520900D02*
X1542700D01*
X1042146Y1091790D02*
Y1113590D01*
Y1091790D02*
X1078246D01*
Y1113590D01*
X1042146D02*
X1078246D01*
X538511Y1018130D02*
Y1039930D01*
X502411D02*
X538511D01*
X502411Y1018130D02*
Y1039930D01*
Y1018130D02*
X538511D01*
D14*
X1092516Y1112350D02*
Y1157850D01*
X1093016Y1112350D02*
X1175516D01*
Y1157850D01*
X1092516D02*
X1175516D01*
D117*
X861282Y862184D02*
Y880916D01*
X852726D02*
X861282D01*
X810590D02*
X819146D01*
X810590Y862184D02*
Y880916D01*
Y862184D02*
X819146D01*
X852726D02*
X861282D01*
X852726D02*
Y862260D01*
Y880840D02*
Y880916D01*
X819146Y880840D02*
X852726D01*
X819146D02*
Y880916D01*
Y862184D02*
Y862260D01*
X852726D01*
X524390Y868956D02*
X543122D01*
X524390Y860400D02*
Y868956D01*
Y818264D02*
Y826820D01*
Y818264D02*
X543122D01*
Y826820D01*
Y860400D02*
Y868956D01*
X543046Y860400D02*
X543122D01*
X524390D02*
X524466D01*
Y826820D02*
Y860400D01*
X524390Y826820D02*
X524466D01*
X543046D02*
X543122D01*
X543046D02*
Y860400D01*
X702850Y829586D02*
X721582D01*
X702850Y821030D02*
Y829586D01*
Y778894D02*
Y787450D01*
Y778894D02*
X721582D01*
Y787450D01*
Y821030D02*
Y829586D01*
X721506Y821030D02*
X721582D01*
X702850D02*
X702926D01*
Y787450D02*
Y821030D01*
X702850Y787450D02*
X702926D01*
X721506D02*
X721582D01*
X721506D02*
Y821030D01*
X1158570Y665334D02*
Y684066D01*
Y665334D02*
X1167126D01*
X1200706D02*
X1209262D01*
Y684066D01*
X1200706D02*
X1209262D01*
X1158570D02*
X1167126D01*
Y683990D02*
Y684066D01*
Y665334D02*
Y665410D01*
X1200706D01*
Y665334D02*
Y665410D01*
Y683990D02*
Y684066D01*
X1167126Y683990D02*
X1200706D01*
X681768Y986482D02*
X700500D01*
X681768Y977926D02*
Y986482D01*
Y935790D02*
Y944346D01*
Y935790D02*
X700500D01*
Y944346D01*
Y977926D02*
Y986482D01*
X700424Y977926D02*
X700500D01*
X681768D02*
X681844D01*
Y944346D02*
Y977926D01*
X681768Y944346D02*
X681844D01*
X700424D02*
X700500D01*
X700424D02*
Y977926D01*
D120*
X1003548Y1021250D02*
X1010048Y1027750D01*
Y1021250D02*
Y1123250D01*
X957048D02*
X1010048D01*
X957048Y1021250D02*
Y1123250D01*
Y1021250D02*
X1010048D01*
X560096Y1029790D02*
Y1061290D01*
X576096D01*
Y1029790D02*
Y1061290D01*
X560096Y1029790D02*
X576096D01*
X404242Y960092D02*
Y992092D01*
Y960092D02*
X420242D01*
Y992092D01*
X404242D02*
X420242D01*
X487736Y700168D02*
X520136D01*
X487736Y654668D02*
Y700168D01*
Y654668D02*
X520136D01*
Y700168D01*
X764956Y1006770D02*
X777656Y994070D01*
X764956D02*
X880456D01*
Y1069070D01*
X764956D02*
X880456D01*
X764956Y994070D02*
Y1069070D01*
X678746Y1072580D02*
X717746D01*
Y1023580D02*
Y1072580D01*
X678746Y1023580D02*
X717746D01*
X678746D02*
Y1072580D01*
Y1059880D02*
X691446Y1072580D01*
X947726Y973860D02*
X1017726D01*
Y903860D02*
Y973860D01*
X947726Y903860D02*
X1017726D01*
X947726D02*
Y973860D01*
Y965860D02*
X955726Y973860D01*
X387152Y700780D02*
X419552D01*
X387152Y655280D02*
Y700780D01*
Y655280D02*
X419552D01*
Y700780D01*
X656138Y700422D02*
X688538D01*
X656138Y654922D02*
Y700422D01*
Y654922D02*
X688538D01*
Y700422D01*
X845876Y753550D02*
X878276D01*
Y799050D01*
X845876D02*
X878276D01*
X845876Y753550D02*
Y799050D01*
X629664Y1105790D02*
Y1121790D01*
X597664D02*
X629664D01*
X597664Y1105790D02*
Y1121790D01*
Y1105790D02*
X629664D01*
X1153670Y786766D02*
Y802766D01*
X1122170D02*
X1153670D01*
X1122170Y786766D02*
Y802766D01*
Y786766D02*
X1153670D01*
X978406Y826720D02*
Y842720D01*
Y826720D02*
X1009906D01*
Y842720D01*
X978406D02*
X1009906D01*
X1164972Y851156D02*
X1180972D01*
X1164972Y819656D02*
Y851156D01*
Y819656D02*
X1180972D01*
Y851156D01*
X1048386Y777496D02*
X1064386D01*
Y745996D02*
Y777496D01*
X1048386Y745996D02*
X1064386D01*
X1048386D02*
Y777496D01*
X949326Y836260D02*
X965326D01*
Y804760D02*
Y836260D01*
X949326Y804760D02*
X965326D01*
X949326D02*
Y836260D01*
X1172846Y1061780D02*
X1188846D01*
X1172846D02*
Y1093280D01*
X1188846D01*
Y1061780D02*
Y1093280D01*
X1226056Y974040D02*
Y990040D01*
X1257556D01*
Y974040D02*
Y990040D01*
X1226056Y974040D02*
X1257556D01*
X719326Y859740D02*
Y875740D01*
X750826D01*
Y859740D02*
Y875740D01*
X719326Y859740D02*
X750826D01*
X744730Y885318D02*
Y901318D01*
X713230D02*
X744730D01*
X713230Y885318D02*
Y901318D01*
Y885318D02*
X744730D01*
X450978Y781556D02*
X466978D01*
Y813056D01*
X450978D02*
X466978D01*
X450978Y781556D02*
Y813056D01*
X460236Y838150D02*
Y854150D01*
X428736D02*
X460236D01*
X428736Y838150D02*
Y854150D01*
Y838150D02*
X460236D01*
X585726Y853390D02*
Y869390D01*
X554226Y853390D02*
X585726D01*
X554226D02*
Y869390D01*
X585726D01*
X563120Y788290D02*
Y804290D01*
X531620D02*
X563120D01*
X531620Y788290D02*
Y804290D01*
Y788290D02*
X563120D01*
X1200786Y1093280D02*
X1216786D01*
Y1061780D02*
Y1093280D01*
X1200786Y1061780D02*
X1216786D01*
X1200786D02*
Y1093280D01*
X1257556Y995630D02*
Y1011630D01*
X1226056Y995630D02*
X1257556D01*
X1226056D02*
Y1011630D01*
X1257556D01*
X841236Y890220D02*
Y906220D01*
X809736Y890220D02*
X841236D01*
X809736D02*
Y906220D01*
X841236D01*
X498336Y868630D02*
Y884630D01*
X466836Y868630D02*
X498336D01*
X466836D02*
Y884630D01*
X498336D01*
X636526Y835850D02*
Y851850D01*
X605026Y835850D02*
X636526D01*
X605026D02*
Y851850D01*
X636526D01*
X1246376Y678530D02*
Y694530D01*
Y678530D02*
X1277876D01*
Y694530D01*
X1246376D02*
X1277876D01*
X1274824Y625222D02*
Y641222D01*
Y625222D02*
X1306324D01*
Y641222D01*
X1274824D02*
X1306324D01*
X535688Y946024D02*
Y962024D01*
X504188D02*
X535688D01*
X504188Y946024D02*
Y962024D01*
Y946024D02*
X535688D01*
X474600Y939802D02*
X490600D01*
X474600Y908302D02*
Y939802D01*
Y908302D02*
X490600D01*
Y939802D01*
X1161286Y639700D02*
Y655700D01*
Y639700D02*
X1192786D01*
Y655700D01*
X1161286D02*
X1192786D01*
X627128Y962026D02*
Y978026D01*
X595628Y962026D02*
X627128D01*
X595628D02*
Y978026D01*
X627128D01*
X869316Y1055190D02*
X885316D01*
X869316D02*
Y1086690D01*
X885316D01*
Y1055190D02*
Y1086690D01*
X835026Y1053920D02*
X851026D01*
X835026D02*
Y1085420D01*
X851026D01*
Y1053920D02*
Y1085420D01*
X867916Y935940D02*
Y951940D01*
Y935940D02*
X899416D01*
Y951940D01*
X867916D02*
X899416D01*
X876806Y1104850D02*
Y1120850D01*
X908306D01*
Y1104850D02*
Y1120850D01*
X876806Y1104850D02*
X908306D01*
X742316Y1058710D02*
X758316D01*
X742316Y1027210D02*
Y1058710D01*
Y1027210D02*
X758316D01*
Y1058710D01*
X765176Y1037170D02*
X781176D01*
X765176D02*
Y1068670D01*
X781176D01*
Y1037170D02*
Y1068670D01*
X654048Y984632D02*
Y1000632D01*
Y984632D02*
X685548D01*
Y1000632D01*
X654048D02*
X685548D01*
X1058420Y868808D02*
Y884808D01*
X1026920Y868808D02*
X1058420D01*
X1026920D02*
Y884808D01*
X1058420D01*
X1043306Y1022170D02*
X1059306D01*
Y1053670D01*
X1043306D02*
X1059306D01*
X1043306Y1022170D02*
Y1053670D01*
X936496Y1024840D02*
Y1040840D01*
X967996D01*
Y1024840D02*
Y1040840D01*
X936496Y1024840D02*
X967996D01*
X674880Y1081152D02*
Y1097152D01*
X643380D02*
X674880D01*
X643380Y1081152D02*
Y1097152D01*
Y1081152D02*
X674880D01*
X1282526Y839800D02*
X1292526D01*
X1287526Y834800D02*
Y844800D01*
X174046Y698860D02*
X206446D01*
X174046Y653360D02*
Y698860D01*
Y653360D02*
X206446D01*
Y698860D01*
X749356Y700422D02*
X781756D01*
X749356Y654922D02*
Y700422D01*
Y654922D02*
X781756D01*
Y700422D01*
X844098Y699152D02*
X876498D01*
X844098Y653652D02*
Y699152D01*
Y653652D02*
X876498D01*
Y699152D01*
X702154Y700422D02*
X734554D01*
X702154Y654922D02*
Y700422D01*
Y654922D02*
X734554D01*
Y700422D01*
X748086Y799050D02*
X780486D01*
X748086Y753550D02*
Y799050D01*
Y753550D02*
X780486D01*
Y799050D01*
X1100366Y1017880D02*
Y1052880D01*
X1154366Y1017880D02*
Y1052880D01*
X1100366Y1017880D02*
X1154366D01*
X1100366Y1052880D02*
X1154366D01*
X1122366Y1035380D02*
X1132366D01*
X1127366Y1030380D02*
Y1040380D01*
X798124Y699660D02*
X830524D01*
X798124Y654160D02*
Y699660D01*
Y654160D02*
X830524D01*
Y699660D01*
X586542Y700676D02*
X618942D01*
X586542Y655176D02*
Y700676D01*
Y655176D02*
X618942D01*
Y700676D01*
X899796Y1076530D02*
Y1108530D01*
X915796D01*
Y1076530D02*
Y1108530D01*
X899796Y1076530D02*
X915796D01*
X899796Y1081860D02*
X905126Y1076530D01*
X853696Y1109930D02*
X885696D01*
X853696D02*
Y1125930D01*
X885696D01*
Y1109930D02*
Y1125930D01*
X880366Y1109930D02*
X885696Y1115260D01*
X778766Y933400D02*
X810766D01*
X778766D02*
Y949400D01*
X810766D01*
Y933400D02*
Y949400D01*
X805436Y933400D02*
X810766Y938730D01*
X601036Y1072590D02*
X633036D01*
Y1056590D02*
Y1072590D01*
X601036Y1056590D02*
X633036D01*
X601036D02*
Y1072590D01*
Y1067260D02*
X606366Y1072590D01*
X600966Y1015440D02*
X632966D01*
Y999440D02*
Y1015440D01*
X600966Y999440D02*
X632966D01*
X600966D02*
Y1015440D01*
Y1010110D02*
X606296Y1015440D01*
X1062356Y916510D02*
Y948510D01*
X1078356D01*
Y916510D02*
Y948510D01*
X1062356Y916510D02*
X1078356D01*
X1062356Y921840D02*
X1067686Y916510D01*
X537774Y700676D02*
X570174D01*
X537774Y655176D02*
Y700676D01*
Y655176D02*
X570174D01*
Y700676D01*
X1508508Y519050D02*
Y535050D01*
X1540508D01*
Y519050D02*
Y535050D01*
X1508508Y519050D02*
X1540508D01*
X1521800Y870602D02*
Y886602D01*
X1553800D01*
Y870602D02*
Y886602D01*
X1521800Y870602D02*
X1553800D01*
X1538984Y545466D02*
Y561466D01*
X1506984Y545466D02*
X1538984D01*
X1506984D02*
Y561466D01*
X1538984D01*
X1553800Y893602D02*
Y909602D01*
X1521800Y893602D02*
X1553800D01*
X1521800D02*
Y909602D01*
X1553800D01*
X698048Y799482D02*
X730448D01*
X698048Y753982D02*
Y799482D01*
Y753982D02*
X730448D01*
Y799482D01*
X315016Y698440D02*
X347416D01*
X315016Y652940D02*
Y698440D01*
Y652940D02*
X347416D01*
Y698440D01*
X437698Y700780D02*
X470098D01*
X437698Y655280D02*
Y700780D01*
Y655280D02*
X470098D01*
Y700780D01*
X796346Y799050D02*
X828746D01*
X796346Y753550D02*
Y799050D01*
Y753550D02*
X828746D01*
Y799050D01*
X650296Y799228D02*
X682696D01*
X650296Y753728D02*
Y799228D01*
Y753728D02*
X682696D01*
Y799228D01*
X268026Y698580D02*
X300426D01*
X268026Y653080D02*
Y698580D01*
Y653080D02*
X300426D01*
Y698580D01*
X221036Y698860D02*
X253436D01*
X221036Y653360D02*
Y698860D01*
Y653360D02*
X253436D01*
Y698860D01*
X339092Y897762D02*
X371092D01*
X339092Y881762D02*
Y897762D01*
Y881762D02*
X371092D01*
Y897762D01*
X688974Y780544D02*
Y812544D01*
X672974D02*
X688974D01*
X672974Y780544D02*
Y812544D01*
Y780544D02*
X688974D01*
X363730Y1070990D02*
X395730D01*
X363730Y1054990D02*
Y1070990D01*
Y1054990D02*
X395730D01*
Y1070990D01*
X1317624Y685294D02*
Y717294D01*
X1301624D02*
X1317624D01*
X1301624Y685294D02*
Y717294D01*
Y685294D02*
X1317624D01*
X668146Y918480D02*
Y950480D01*
X652146D02*
X668146D01*
X652146Y918480D02*
Y950480D01*
Y918480D02*
X668146D01*
X333884Y770534D02*
Y802534D01*
Y770534D02*
X349884D01*
Y802534D01*
X333884D02*
X349884D01*
X1046098Y804928D02*
Y836928D01*
X1030098Y804928D02*
X1046098D01*
X1030098D02*
Y836928D01*
X1046098D01*
X1040768D02*
X1046098Y831598D01*
X977138Y708232D02*
Y718232D01*
X972138Y713232D02*
X982138D01*
X364824Y828802D02*
X374824D01*
X369824Y823802D02*
Y833802D01*
X434420Y1034542D02*
X444420D01*
X439420Y1029542D02*
Y1039542D01*
X639700Y781556D02*
Y813056D01*
Y781556D02*
X655700D01*
Y813056D01*
X639700D02*
X655700D01*
X1214756Y681810D02*
Y713310D01*
Y681810D02*
X1230756D01*
Y713310D01*
X1214756D02*
X1230756D01*
X621666Y919060D02*
Y950560D01*
Y919060D02*
X637666D01*
Y950560D01*
X621666D02*
X637666D01*
X1137286Y827022D02*
X1142616Y821692D01*
X1137286D02*
X1153286D01*
Y853692D01*
X1137286D02*
X1153286D01*
X1137286Y821692D02*
Y853692D01*
X692026Y896370D02*
X697356Y891040D01*
X681356Y896370D02*
X697356D01*
X681356Y864370D02*
Y896370D01*
Y864370D02*
X697356D01*
Y896370D01*
X431676Y811350D02*
X437006Y806020D01*
X421006Y811350D02*
X437006D01*
X421006Y779350D02*
Y811350D01*
Y779350D02*
X437006D01*
Y811350D01*
X529846Y832325D02*
X535176Y837655D01*
X529846Y821655D02*
Y837655D01*
Y821655D02*
X561846D01*
Y837655D01*
X529846D02*
X561846D01*
X1303656Y669110D02*
X1308986Y663780D01*
X1303656D02*
X1319656D01*
Y695780D01*
X1303656D02*
X1319656D01*
X1303656Y663780D02*
Y695780D01*
X510542Y916562D02*
X515872Y921892D01*
X510542Y905892D02*
Y921892D01*
Y905892D02*
X542542D01*
Y921892D01*
X510542D02*
X542542D01*
X1045466Y1046430D02*
Y1062430D01*
X1077466D01*
Y1046430D02*
Y1062430D01*
X1045466Y1046430D02*
X1077466D01*
X1045466Y1015950D02*
Y1031950D01*
X1077466D01*
Y1015950D02*
Y1031950D01*
X1045466Y1015950D02*
X1077466D01*
X1069976Y1038920D02*
X1085976D01*
X1069976Y1006920D02*
Y1038920D01*
Y1006920D02*
X1085976D01*
Y1038920D01*
X975996Y1070180D02*
X991996D01*
X975996D02*
Y1102180D01*
X991996D01*
Y1070180D02*
Y1102180D01*
X1113966Y997360D02*
X1129966D01*
Y965360D02*
Y997360D01*
X1113966Y965360D02*
X1129966D01*
X1113966D02*
Y997360D01*
X1148716D02*
X1164716D01*
Y965360D02*
Y997360D01*
X1148716Y965360D02*
X1164716D01*
X1148716D02*
Y997360D01*
X989458Y954276D02*
X1005458D01*
Y922276D02*
Y954276D01*
X989458Y922276D02*
X1005458D01*
X989458D02*
Y954276D01*
X1078866Y953590D02*
X1094866D01*
Y921590D02*
Y953590D01*
X1078866Y921590D02*
X1094866D01*
X1078866D02*
Y953590D01*
X1045846Y921590D02*
X1061846D01*
X1045846D02*
Y953590D01*
X1061846D01*
Y921590D02*
Y953590D01*
D122*
X901138Y637232D02*
X1053138D01*
X901138D02*
Y789232D01*
X1053138D01*
Y637232D02*
Y789232D01*
M02*
