M48
;Layer_Color=9474304
;FILE_FORMAT=4:4
METRIC,LZ
;TYPE=PLATED
T4F00S00C0.8000
;TYPE=NON_PLATED
%
G90
G05
T04
G00X0159505Y00477467
M15
G01Y00522467
M16
G00X016558Y00477467
M15
G01Y00522467
M16
G00X017008Y00477467
M15
G01Y00522467
M16
G00X017008Y00577467
M15
G01Y00622467
M16
G00X016558Y00577467
M15
G01Y00622467
M16
G00X0159505Y00577467
M15
G01Y00622467
M16
G00X0159505Y00677467
M15
G01Y00722467
M16
G00X016558Y00677467
M15
G01Y00722467
M16
G00X017008Y00677467
M15
G01Y00722467
M16
G00X0150855Y00706967
M15
G01X0155355
M16
G00X0150805Y00492967
M15
G01X0155305
M16
G00X015088Y00833602
M15
G01X015538
M16
G00X015093Y01047602
M15
G01X015543
M16
G00X015958Y01018102
M15
G01Y01063102
M16
G00X0165655Y01018102
M15
G01Y01063102
M16
G00X0170155Y01018102
M15
G01Y01063102
M16
G00X0170155Y00918102
M15
G01Y00963102
M16
G00X0165655Y00918102
M15
G01Y00963102
M16
G00X015958Y00918102
M15
G01Y00963102
M16
G00X015958Y00818102
M15
G01Y00863102
M16
G00X0165655Y00818102
M15
G01Y00863102
M16
G00X0170155Y00818102
M15
G01Y00863102
M16
M17
M30
