G04*
G04 #@! TF.GenerationSoftware,Altium Limited,Altium Designer,19.0.10 (269)*
G04*
G04 Layer_Color=128*
%FSLAX44Y44*%
%MOMM*%
G71*
G01*
G75*
%ADD19R,1.8000X1.0500*%
%ADD27R,1.0300X1.8700*%
%ADD28R,1.0500X1.8000*%
%ADD29R,1.0000X0.6000*%
%ADD30R,0.6000X1.0000*%
%ADD34R,2.5400X2.6700*%
%ADD35R,1.2700X0.7620*%
%ADD39R,1.8700X1.0300*%
%ADD113R,1.4000X3.3000*%
%ADD114R,1.1112X0.6008*%
%ADD115R,0.6008X1.1112*%
D19*
X1056386Y746746D02*
D03*
Y776746D02*
D03*
X957326Y805510D02*
D03*
Y835510D02*
D03*
X1180846Y1092530D02*
D03*
Y1062530D02*
D03*
X1208786D02*
D03*
Y1092530D02*
D03*
X877316Y1085940D02*
D03*
Y1055940D02*
D03*
X843026Y1084670D02*
D03*
Y1054670D02*
D03*
X773176Y1067920D02*
D03*
Y1037920D02*
D03*
X647700Y812306D02*
D03*
Y782306D02*
D03*
X1222756Y712560D02*
D03*
Y682560D02*
D03*
X629666Y949810D02*
D03*
Y919810D02*
D03*
D27*
X1538708Y527050D02*
D03*
X1510308D02*
D03*
X1552000Y878602D02*
D03*
X1523600D02*
D03*
X1508784Y553466D02*
D03*
X1537184D02*
D03*
X1523600Y901602D02*
D03*
X1552000D02*
D03*
X369292Y889762D02*
D03*
X340892D02*
D03*
X393930Y1062990D02*
D03*
X365530D02*
D03*
X1075666Y1054430D02*
D03*
X1047266D02*
D03*
X1075666Y1023950D02*
D03*
X1047266D02*
D03*
D28*
X1256806Y982040D02*
D03*
X1226806D02*
D03*
X750076Y867740D02*
D03*
X720076D02*
D03*
X554976Y861390D02*
D03*
X584976D02*
D03*
X1226806Y1003630D02*
D03*
X1256806D02*
D03*
X810486Y898220D02*
D03*
X840486D02*
D03*
X467586Y876630D02*
D03*
X497586D02*
D03*
X605776Y843850D02*
D03*
X635776D02*
D03*
X596378Y970026D02*
D03*
X626378D02*
D03*
X907556Y1112850D02*
D03*
X877556D02*
D03*
X1027670Y876808D02*
D03*
X1057670D02*
D03*
X967246Y1032840D02*
D03*
X937246D02*
D03*
D29*
X766734Y909980D02*
D03*
X792734Y919480D02*
D03*
Y900480D02*
D03*
X1248872Y683514D02*
D03*
X1274872Y693014D02*
D03*
Y674014D02*
D03*
X608122Y936752D02*
D03*
X582122Y927252D02*
D03*
Y946252D02*
D03*
X551642Y971042D02*
D03*
X577642Y980542D02*
D03*
Y961542D02*
D03*
D30*
X506172Y837692D02*
D03*
X487172D02*
D03*
X496672Y811692D02*
D03*
X1092200Y791510D02*
D03*
X1101700Y765510D02*
D03*
X1082700D02*
D03*
X1010666Y803610D02*
D03*
X1001166Y829610D02*
D03*
X1020166D02*
D03*
X593598Y791926D02*
D03*
X584098Y817926D02*
D03*
X603098D02*
D03*
D34*
X1531800Y968587D02*
D03*
D35*
Y945077D02*
D03*
D39*
X412242Y990292D02*
D03*
Y961892D02*
D03*
X680974Y782344D02*
D03*
Y810744D02*
D03*
X1309624Y687094D02*
D03*
Y715494D02*
D03*
X660146Y920280D02*
D03*
Y948680D02*
D03*
X341884Y800734D02*
D03*
Y772334D02*
D03*
X983996Y1100380D02*
D03*
Y1071980D02*
D03*
X1121966Y967160D02*
D03*
Y995560D02*
D03*
X1156716Y967160D02*
D03*
Y995560D02*
D03*
X997458Y924076D02*
D03*
Y952476D02*
D03*
X1086866Y923390D02*
D03*
Y951790D02*
D03*
X1053846D02*
D03*
Y923390D02*
D03*
D113*
X1108366Y1035380D02*
D03*
X1146366D02*
D03*
D114*
X853186Y871550D02*
D03*
X818686D02*
D03*
X1166666Y674700D02*
D03*
X1201166D02*
D03*
D115*
X533756Y860860D02*
D03*
Y826360D02*
D03*
X712216Y821490D02*
D03*
Y786990D02*
D03*
X691134Y978386D02*
D03*
Y943886D02*
D03*
M02*
