G04*
G04 #@! TF.GenerationSoftware,Altium Limited,Altium Designer,19.0.10 (269)*
G04*
G04 Layer_Color=16711935*
%FSLAX44Y44*%
%MOMM*%
G71*
G01*
G75*
%ADD119C,0.0762*%
%ADD120C,0.1000*%
%ADD121C,0.0254*%
D119*
X850821Y875780D02*
X842357Y867316D01*
X850821D02*
X842357Y875780D01*
X850821Y871548D02*
X842357D01*
X846589Y867316D02*
Y875780D01*
X529526Y858495D02*
X537990Y850031D01*
Y858495D02*
X529526Y850031D01*
X533758Y858495D02*
Y850031D01*
X537990Y854263D02*
X529526D01*
X707986Y819125D02*
X716450Y810661D01*
Y819125D02*
X707986Y810661D01*
X712218Y819125D02*
Y810661D01*
X716450Y814893D02*
X707986D01*
X1169031Y670470D02*
X1177495Y678934D01*
X1169031D02*
X1177495Y670470D01*
X1169031Y674702D02*
X1177495D01*
X1173263Y678934D02*
Y670470D01*
X686904Y976021D02*
X695368Y967557D01*
Y976021D02*
X686904Y967557D01*
X691136Y976021D02*
Y967557D01*
X695368Y971789D02*
X686904D01*
D120*
X1234026Y855300D02*
X1341026D01*
Y821300D02*
Y868300D01*
X1234026Y821300D02*
Y868300D01*
Y821300D02*
X1341026D01*
X1234026Y868300D02*
X1341026D01*
X1103366Y1018380D02*
Y1052380D01*
X1151366Y1018380D02*
Y1052380D01*
X1103366Y1018380D02*
X1151366D01*
X1103366Y1052380D02*
X1151366D01*
X902138Y638232D02*
X1052138D01*
X902138D02*
Y788232D01*
X1052138D01*
Y638232D02*
Y788232D01*
X341324Y775302D02*
Y882302D01*
X388324Y775302D02*
Y882302D01*
X341324Y775302D02*
X388324D01*
X341324Y882302D02*
X388324D01*
X354324Y775302D02*
Y882302D01*
X410920Y981042D02*
Y1088042D01*
X457920Y981042D02*
Y1088042D01*
X410920Y981042D02*
X457920D01*
X410920Y1088042D02*
X457920D01*
X423920Y981042D02*
Y1088042D01*
D121*
X850186Y868800D02*
Y874300D01*
X855186D01*
Y868800D02*
Y874300D01*
X850186Y868800D02*
X855186D01*
X821686D02*
Y874300D01*
X816686Y868800D02*
X821686D01*
X816686D02*
Y874300D01*
X821686D01*
X846811Y878300D02*
X850186Y874925D01*
X846811Y864800D02*
X850186Y868175D01*
X821686Y864800D02*
X850186D01*
X821686D02*
Y878300D01*
X850186D01*
Y864800D02*
Y878300D01*
X531006Y857860D02*
X536506D01*
X531006D02*
Y862860D01*
X536506D01*
Y857860D02*
Y862860D01*
X531006Y829360D02*
X536506D01*
Y824360D02*
Y829360D01*
X531006Y824360D02*
X536506D01*
X531006D02*
Y829360D01*
X527006Y854485D02*
X530381Y857860D01*
X537131D02*
X540506Y854485D01*
Y829360D02*
Y857860D01*
X527006Y829360D02*
X540506D01*
X527006D02*
Y857860D01*
X540506D01*
X709466Y818490D02*
X714966D01*
X709466D02*
Y823490D01*
X714966D01*
Y818490D02*
Y823490D01*
X709466Y789990D02*
X714966D01*
Y784990D02*
Y789990D01*
X709466Y784990D02*
X714966D01*
X709466D02*
Y789990D01*
X705466Y815115D02*
X708841Y818490D01*
X715591D02*
X718966Y815115D01*
Y789990D02*
Y818490D01*
X705466Y789990D02*
X718966D01*
X705466D02*
Y818490D01*
X718966D01*
X1169666Y671950D02*
Y677450D01*
X1164666Y671950D02*
X1169666D01*
X1164666D02*
Y677450D01*
X1169666D01*
X1198166Y671950D02*
Y677450D01*
X1203166D01*
Y671950D02*
Y677450D01*
X1198166Y671950D02*
X1203166D01*
X1169666Y671325D02*
X1173041Y667950D01*
X1169666Y678075D02*
X1173041Y681450D01*
X1169666D02*
X1198166D01*
Y667950D02*
Y681450D01*
X1169666Y667950D02*
X1198166D01*
X1169666D02*
Y681450D01*
X688384Y975386D02*
X693884D01*
X688384D02*
Y980386D01*
X693884D01*
Y975386D02*
Y980386D01*
X688384Y946886D02*
X693884D01*
Y941886D02*
Y946886D01*
X688384Y941886D02*
X693884D01*
X688384D02*
Y946886D01*
X684384Y972011D02*
X687759Y975386D01*
X694509D02*
X697884Y972011D01*
Y946886D02*
Y975386D01*
X684384Y946886D02*
X697884D01*
X684384D02*
Y975386D01*
X697884D01*
M02*
