G04*
G04 #@! TF.GenerationSoftware,Altium Limited,Altium Designer,19.0.10 (269)*
G04*
G04 Layer_Color=8421504*
%FSLAX44Y44*%
%MOMM*%
G71*
G01*
G75*
%ADD18R,1.8000X0.3500*%
%ADD19R,1.8000X1.0500*%
%ADD20R,0.4000X2.0000*%
%ADD21R,2.0000X0.4000*%
%ADD22R,3.4300X0.8500*%
%ADD23R,0.6500X1.8500*%
%ADD24R,1.5250X0.6500*%
%ADD25R,1.5000X0.5000*%
%ADD26R,0.5000X1.5000*%
%ADD27R,1.0300X1.8700*%
%ADD28R,1.0500X1.8000*%
%ADD29R,1.0000X0.6000*%
%ADD30R,0.6000X1.0000*%
%ADD31R,1.5000X1.9000*%
%ADD32R,0.4000X1.3500*%
%ADD33R,2.1000X1.9000*%
%ADD34R,2.5400X2.6700*%
%ADD35R,1.2700X0.7620*%
%ADD36R,2.4000X3.3000*%
%ADD37R,1.7500X1.7000*%
%ADD38R,1.7000X1.7500*%
%ADD39R,1.8700X1.0300*%
%ADD40R,0.7620X1.2700*%
%ADD41R,2.6700X2.5400*%
D18*
X948048Y1030000D02*
D03*
Y1036500D02*
D03*
Y1043000D02*
D03*
Y1049500D02*
D03*
Y1056000D02*
D03*
Y1062500D02*
D03*
Y1069000D02*
D03*
Y1075500D02*
D03*
Y1082000D02*
D03*
Y1088500D02*
D03*
Y1095000D02*
D03*
Y1101500D02*
D03*
Y1108000D02*
D03*
Y1114500D02*
D03*
X1019048D02*
D03*
Y1108000D02*
D03*
Y1101500D02*
D03*
Y1095000D02*
D03*
Y1088500D02*
D03*
Y1082000D02*
D03*
Y1075500D02*
D03*
Y1069000D02*
D03*
Y1062500D02*
D03*
Y1056000D02*
D03*
Y1049500D02*
D03*
Y1043000D02*
D03*
Y1036500D02*
D03*
Y1030000D02*
D03*
D19*
X568096Y1030540D02*
D03*
Y1060540D02*
D03*
X1172972Y820406D02*
D03*
Y850406D02*
D03*
X458978Y812306D02*
D03*
Y782306D02*
D03*
X482600Y909052D02*
D03*
Y939052D02*
D03*
X750316Y1027960D02*
D03*
Y1057960D02*
D03*
X1051306Y1052920D02*
D03*
Y1022920D02*
D03*
D20*
X853756Y909650D02*
D03*
X841756D02*
D03*
X829756D02*
D03*
D21*
X898906Y901330D02*
D03*
Y889330D02*
D03*
Y877330D02*
D03*
D22*
X503936Y654418D02*
D03*
Y700418D02*
D03*
X403352Y655030D02*
D03*
Y701030D02*
D03*
X672338Y654672D02*
D03*
Y700672D02*
D03*
X862076Y799300D02*
D03*
Y753300D02*
D03*
X190246Y653110D02*
D03*
Y699110D02*
D03*
X765556Y654672D02*
D03*
Y700672D02*
D03*
X860298Y653402D02*
D03*
Y699402D02*
D03*
X718354Y654672D02*
D03*
Y700672D02*
D03*
X764286Y753300D02*
D03*
Y799300D02*
D03*
X814324Y653910D02*
D03*
Y699910D02*
D03*
X602742Y654926D02*
D03*
Y700926D02*
D03*
X553974Y654926D02*
D03*
Y700926D02*
D03*
X714248Y753732D02*
D03*
Y799732D02*
D03*
X331216Y652690D02*
D03*
Y698690D02*
D03*
X453898Y655030D02*
D03*
Y701030D02*
D03*
X812546Y753300D02*
D03*
Y799300D02*
D03*
X666496Y753478D02*
D03*
Y799478D02*
D03*
X284226Y652830D02*
D03*
Y698830D02*
D03*
X237236Y653110D02*
D03*
Y699110D02*
D03*
D23*
X771906Y1078320D02*
D03*
X784606D02*
D03*
X797306D02*
D03*
X810006D02*
D03*
X822706D02*
D03*
X835406D02*
D03*
X848106D02*
D03*
X860806D02*
D03*
X873506D02*
D03*
Y984820D02*
D03*
X860806D02*
D03*
X848106D02*
D03*
X835406D02*
D03*
X822706D02*
D03*
X810006D02*
D03*
X797306D02*
D03*
X784606D02*
D03*
X771906D02*
D03*
D24*
X671126Y1067130D02*
D03*
Y1054430D02*
D03*
Y1041730D02*
D03*
Y1029030D02*
D03*
X725366D02*
D03*
Y1041730D02*
D03*
Y1054430D02*
D03*
Y1067130D02*
D03*
D25*
X940226Y966860D02*
D03*
Y958860D02*
D03*
Y950860D02*
D03*
Y942860D02*
D03*
Y934860D02*
D03*
Y926860D02*
D03*
Y918860D02*
D03*
Y910860D02*
D03*
X1025226D02*
D03*
Y918860D02*
D03*
Y926860D02*
D03*
Y934860D02*
D03*
Y942860D02*
D03*
Y950860D02*
D03*
Y958860D02*
D03*
Y966860D02*
D03*
D26*
X954726Y896360D02*
D03*
X962726D02*
D03*
X970726D02*
D03*
X978726D02*
D03*
X986726D02*
D03*
X994726D02*
D03*
X1002726D02*
D03*
X1010726D02*
D03*
Y981360D02*
D03*
X1002726D02*
D03*
X994726D02*
D03*
X986726D02*
D03*
X978726D02*
D03*
X970726D02*
D03*
X962726D02*
D03*
X954726D02*
D03*
D27*
X599464Y1113790D02*
D03*
X627864D02*
D03*
D28*
X1122920Y794766D02*
D03*
X1152920D02*
D03*
X1009156Y834720D02*
D03*
X979156D02*
D03*
X713980Y893318D02*
D03*
X743980D02*
D03*
X429486Y846150D02*
D03*
X459486D02*
D03*
X532370Y796290D02*
D03*
X562370D02*
D03*
X1277126Y686530D02*
D03*
X1247126D02*
D03*
X1305574Y633222D02*
D03*
X1275574D02*
D03*
X504938Y954024D02*
D03*
X534938D02*
D03*
X1192036Y647700D02*
D03*
X1162036D02*
D03*
X898666Y943940D02*
D03*
X868666D02*
D03*
X684798Y992632D02*
D03*
X654798D02*
D03*
X644130Y1089152D02*
D03*
X674130D02*
D03*
D29*
X798876Y871550D02*
D03*
X772876Y881050D02*
D03*
Y862050D02*
D03*
D30*
X493776Y779988D02*
D03*
X503276Y805988D02*
D03*
X484276D02*
D03*
X607060Y782020D02*
D03*
X616560Y808020D02*
D03*
X597560D02*
D03*
X1222502Y675178D02*
D03*
X1213002Y649178D02*
D03*
X1232002D02*
D03*
D31*
X1124016Y1144600D02*
D03*
X1144016D02*
D03*
D32*
X1147016Y1117600D02*
D03*
X1121016D02*
D03*
X1140516D02*
D03*
X1127516D02*
D03*
X1134016D02*
D03*
D33*
X1100516Y1144600D02*
D03*
X1167516D02*
D03*
D34*
X1440350Y710387D02*
D03*
X953516Y829640D02*
D03*
D35*
X1440350Y733897D02*
D03*
X953516Y806130D02*
D03*
D36*
X1158446Y712470D02*
D03*
X1088946D02*
D03*
D37*
X907796Y1081030D02*
D03*
Y1104030D02*
D03*
X1070356Y921010D02*
D03*
Y944010D02*
D03*
X1038098Y832428D02*
D03*
Y809428D02*
D03*
X1145286Y849192D02*
D03*
Y826192D02*
D03*
X689356Y868870D02*
D03*
Y891870D02*
D03*
X429006Y783850D02*
D03*
Y806850D02*
D03*
X1311656Y691280D02*
D03*
Y668280D02*
D03*
D38*
X881196Y1117930D02*
D03*
X858196D02*
D03*
X806266Y941400D02*
D03*
X783266D02*
D03*
X605536Y1064590D02*
D03*
X628536D02*
D03*
X605466Y1007440D02*
D03*
X628466D02*
D03*
X557346Y829655D02*
D03*
X534346D02*
D03*
X538042Y913892D02*
D03*
X515042D02*
D03*
D39*
X1077976Y1008720D02*
D03*
Y1037120D02*
D03*
D40*
X1076721Y1102690D02*
D03*
X503936Y1029030D02*
D03*
D41*
X1053211Y1102690D02*
D03*
X527446Y1029030D02*
D03*
M02*
