M48
;Layer_Color=9474304
;FILE_FORMAT=4:4
METRIC,LZ
;TYPE=PLATED
T1F00S00C0.3000
T2F00S00C0.4000
T3F00S00C0.6000
T5F00S00C0.8500
T6F00S00C1.0000
T7F00S00C1.3970
T8F00S00C1.4000
T9F00S00C1.6000
T10F00S00C4.0005
;TYPE=NON_PLATED
T11F00S00C4.0500
%
T01
X01524536Y00271699
X01336548Y00721614
X01303274Y0075565
X01290828Y0069088
X01274872Y00680974
X01256806Y00698246
X01241298Y00664972
X0122428Y00628904
X01190326Y0061992
X01179576Y00662686
X01143Y00760222
X01093216Y00777748
X01073404Y00791972
X01033272Y00788416
X01036828Y00762554
X01018794Y00766064
X00969518Y00793168
X00887984Y0078613
X00906526Y00601536
X01086104Y00573786
X01053592Y00684276
X01060196Y0070739
X010922Y00737362
X00738632Y00742696
X00620522Y0076581
X00636016Y00782521
X00578612Y00766572
X00533386Y00779526
X00468122Y00725246
X00547624Y00672846
X00596392Y00628904
X00667004Y0065278
X00695198Y00626872
X00422148Y00623062
X00450342Y00557022
X00387096Y00601472
X00325374Y00610655
X0037211Y00737108
X00209804Y00723392
X00485546Y00800608
X0049784Y00799084
X00508508Y0082169
X0047244Y00827278
X00555916Y008128
X00583692Y00804418
X00612902Y00807212
X00620522Y00821944
X00634746Y00813816
X0066421Y00812038
X00653796Y00843857
X00675386Y0084328
X00669798Y00891794
X00683976Y0092075
X00707136Y0086901
X00734822Y0086614
X00759206Y0086115
X00763016Y00873252
X00758952Y00884174
X00763016Y00908558
X00779526Y00908304
X00783082Y00870458
X00784098Y008255
X0075311Y0084201
X00738886Y00821744
X00753364Y00932434
X00747776Y00944118
X00750316Y00960882
X00760236Y0098482
X00751586Y0100363
Y0101915
X00725906
X00708406Y0103747
X00705358Y01059434
X00683006Y0104935
X00690118Y01026414
X00670814Y00993902
X00637286Y0102743
X00609854Y0104267
X00599694Y00977138
X00606298Y00951992
X00584708Y00945077
X0056261Y00937768
X00537718Y0092075
X00505968Y00934974
X0053467Y00988314
X0059436Y00898144
X0062865Y00886968
X00574802Y00858012
X00579628Y00838454
X00646684Y01095756
X00690118Y01079246
X00738851Y01067165
X00792226Y01015238
X00796036Y0095918
X00837438Y00962172
X00848106Y0095283
X00853756Y0097118
X00883666Y00974852
X00890016Y0099347
X0086614Y01017524
X00852932Y01021334
X00891083Y01056448
X00917837Y01053668
X00925576Y010303
X00947226Y0099982
X0094361Y00979424
X00970726Y0099474
X00978726Y0100001
X00998545Y01030128
X00985012Y01049528
X01034503Y01049714
X01038429Y01087908
X01075666Y0108468
X01109472Y010795
X01147016Y0107983
X01133356Y0110269
X01154176Y0100744
X01190498Y01014984
X01184656Y0096426
X01188466Y00890524
X01166368Y00883412
X01127746Y0089338
X01088946Y00889762
X01095756Y00878468
X01098296Y0086393
X01065978Y0084869
X01058164Y00816356
X01082802Y00805688
X01022204Y0080518
X01010726Y00817118
X00976791Y0080899
X00970026Y0085006
X00971296Y0087663
X00981964Y00870966
X00980798Y00922224
X00962914Y00918972
X00960882Y00928878
X00956056Y00912622
X00915416Y0091473
X00921576Y00935353
X00883666Y0094267
X00853756Y0093391
X00829756Y0093448
X00796036Y00884682
X00798576Y0087155
X00801116Y00843564
X00818686Y0082456
X00844804Y0084201
X0087503Y00841502
X00905764Y0084201
X00914908Y0082296
X00919226Y00804256
X0088773Y00811784
X0087249Y00799846
X01023366Y0084869
X01024876Y00889254
X01046468Y0089949
X01072709Y00892618
X0106966Y0095791
X01061918Y00962172
X01051271Y0098552
X01042416Y0093378
X0101092Y0093218
X01004824Y00953008
X00973836Y00954024
X0097409Y00940562
X00966033Y01084783
X00967303Y01101968
X01001593Y01103198
X00891286Y0110015
X00896366Y0111793
X00847466Y0109761
X00801116Y0109507
X00796503Y01130046
X01103778Y00976092
X01150366Y00849376
X01198118Y0086106
X01200404Y00796036
X0135001Y00851154
X013462Y00892556
X01311402Y01003554
T02
X01315466Y00981964
X01370584Y0102235
X01441196Y00876046
T03
X0064262Y00739724
X01387856Y00875742
T05
X01109016Y011176
X01159016
T06
X00369824Y00803402
Y00828802
Y00854202
X0043942Y01009142
Y01034542
Y01059942
X00723646Y0098585
X00723646Y0096045
X00909066Y010049
X00909066Y010303
X01122426Y0093886
X01147826
X01173226
Y0091346
X01147826
X01122426
X01262126Y008398
X01287526
X01312926
T07
X01286541Y01045032
X01328553Y0104488
Y0110015
X01286516
T08
X00927138Y00675732
X00977138Y00688232
X01027138Y00675732
X01014638Y00738232
X00939638
X01099016Y011446
X01169016
T09
X01191271Y0048492
Y0051992
X01156271
Y0048492
X01121271
X01086271
X01051271
X01016271
X00981271
X00946271
X00911271
X00876271
Y0051992
X00911271
X00946271
X00981271
X01016271
X01051271
X01086271
X01121271
X00548326
Y0048492
X00513326
X00478326
X00443326
X00408326
Y0051992
X00443326
X00478326
X00513326
X00373326
Y0048492
X00338326
X00303326
X00268326
X00233326
Y0051992
X00268326
X00303326
X00338326
T10
X01818326Y0059492
X00712216Y0049532
X00101346Y0059492
Y0112936
X00712216
X01818326
T11
X01261271Y0049532
X00806271
X00618326
X00163326
M30
